<?xml version="1.0" encoding="iso-8859-1"?>
<!-- Generator: Adobe Illustrator 16.0.0, SVG Export Plug-In . SVG Version: 6.00 Build 0)  -->
<!DOCTYPE svg PUBLIC "-//W3C//DTD SVG 1.1//EN" "http://www.w3.org/Graphics/SVG/1.1/DTD/svg11.dtd">
<svg version="1.1" xmlns="http://www.w3.org/2000/svg" xmlns:xlink="http://www.w3.org/1999/xlink" x="0px" y="0px" width="400px"
	 height="133px" viewBox="0 0 400 133" style="enable-background:new 0 0 400 133;" xml:space="preserve">
<g id="Layer_1">
	<g>
		<g id="XMLID_1_">
			<g>
				<rect x="374.5" y="108" width="13" height="12"/>
				<rect x="374.5" y="96" width="13" height="12"/>
				<rect x="374.5" y="84" width="13" height="12"/>
				<rect x="374.5" y="72" width="13" height="12"/>
				<rect x="374.5" y="60" width="13" height="12"/>
				<rect x="374.5" y="48" width="13" height="12"/>
				<rect x="374.5" y="36" width="13" height="12"/>
				<rect x="374.5" y="24" width="13" height="12"/>
				<rect x="374.5" y="12" width="13" height="12"/>
				<rect x="361.5" y="108" width="13" height="12"/>
				<rect x="361.5" y="12" width="13" height="12"/>
				<rect x="348.5" y="108" width="13" height="12"/>
				<rect x="348.5" y="12" width="13" height="12"/>
				<rect x="335.5" y="108" width="13" height="12"/>
				<rect x="335.5" y="12" width="13" height="12"/>
				<rect x="322.5" y="108" width="13" height="12"/>
				<rect x="322.5" y="12" width="13" height="12"/>
				<rect x="309.5" y="108" width="13" height="12"/>
				<rect x="309.5" y="12" width="13" height="12"/>
				<rect x="296.5" y="108" width="13" height="12"/>
				<rect x="296.5" y="12" width="13" height="12"/>
				<rect x="283.5" y="108" width="13" height="12"/>
				<rect x="283.5" y="12" width="13" height="12"/>
				<rect x="270.5" y="108" width="13" height="12"/>
				<rect x="270.5" y="12" width="13" height="12"/>
				<rect x="258.5" y="108" width="12" height="12"/>
				<rect x="258.5" y="12" width="12" height="12"/>
				<rect x="245.5" y="108" width="13" height="12"/>
				<rect x="245.5" y="12" width="13" height="12"/>
				<rect x="232.5" y="108" width="13" height="12"/>
				<rect x="232.5" y="12" width="13" height="12"/>
				<rect x="219.5" y="108" width="13" height="12"/>
				<rect x="219.5" y="12" width="13" height="12"/>
				<rect x="206.5" y="108" width="13" height="12"/>
				<rect x="206.5" y="12" width="13" height="12"/>
				<rect x="193.5" y="108" width="13" height="12"/>
				<rect x="193.5" y="12" width="13" height="12"/>
				<rect x="180.5" y="108" width="13" height="12"/>
				<rect x="180.5" y="12" width="13" height="12"/>
				<rect x="167.5" y="108" width="13" height="12"/>
				<rect x="167.5" y="12" width="13" height="12"/>
				<rect x="154.5" y="108" width="13" height="12"/>
				<rect x="154.5" y="12" width="13" height="12"/>
				<rect x="141.5" y="108" width="13" height="12"/>
				<rect x="141.5" y="12" width="13" height="12"/>
				<rect x="129.5" y="108" width="12" height="12"/>
				<rect x="129.5" y="12" width="12" height="12"/>
				<rect x="116.5" y="108" width="13" height="12"/>
				<rect x="116.5" y="12" width="13" height="12"/>
				<rect x="103.5" y="108" width="13" height="12"/>
				<rect x="103.5" y="12" width="13" height="12"/>
				<rect x="90.5" y="108" width="13" height="12"/>
				<rect x="90.5" y="12" width="13" height="12"/>
				<rect x="77.5" y="108" width="13" height="12"/>
				<rect x="77.5" y="12" width="13" height="12"/>
				<rect x="64.5" y="108" width="13" height="12"/>
				<rect x="64.5" y="12" width="13" height="12"/>
				<rect x="51.5" y="108" width="13" height="12"/>
				<rect x="51.5" y="12" width="13" height="12"/>
				<rect x="38.5" y="108" width="13" height="12"/>
				<rect x="38.5" y="12" width="13" height="12"/>
				<rect x="25.5" y="108" width="13" height="12"/>
				<rect x="25.5" y="12" width="13" height="12"/>
				<rect x="12.5" y="108" width="13" height="12"/>
				<rect x="12.5" y="96" width="13" height="12"/>
				<rect x="12.5" y="84" width="13" height="12"/>
				<rect x="12.5" y="72" width="13" height="12"/>
				<rect x="12.5" y="60" width="13" height="12"/>
				<rect x="12.5" y="48" width="13" height="12"/>
				<rect x="12.5" y="36" width="13" height="12"/>
				<rect x="12.5" y="24" width="13" height="12"/>
				<rect x="12.5" y="12" width="13" height="12"/>
			</g>
			<g>
			</g>
		</g>
	</g>
</g>
<g id="Layer_2">
	<g>
		<g id="XMLID_2_">
			<g>
				<rect x="64.5" y="96.5" style="fill:#68FFF3;" width="13" height="12"/>
				<rect x="64.5" y="84.5" style="fill:#68FFF3;" width="13" height="12"/>
				<rect x="64.5" y="72.5" style="fill:#68FFF3;" width="13" height="12"/>
				<rect x="64.5" y="59.5" style="fill:#68FFF3;" width="13" height="13"/>
				<rect x="64.5" y="47.5" style="fill:#68FFF3;" width="13" height="12"/>
				<rect x="64.5" y="35.5" style="fill:#68FFF3;" width="13" height="12"/>
				<rect x="64.5" y="23.5" style="fill:#68FFF3;" width="13" height="12"/>
				<rect x="51.5" y="96.5" style="fill:#68FFF3;" width="13" height="12"/>
				<rect x="51.5" y="84.5" style="fill:#68FFF3;" width="13" height="12"/>
				<rect x="51.5" y="72.5" style="fill:#68FFF3;" width="13" height="12"/>
				<rect x="51.5" y="59.5" style="fill:#68FFF3;" width="13" height="13"/>
				<rect x="51.5" y="47.5" style="fill:#68FFF3;" width="13" height="12"/>
				<rect x="51.5" y="35.5" style="fill:#68FFF3;" width="13" height="12"/>
				<rect x="51.5" y="23.5" style="fill:#68FFF3;" width="13" height="12"/>
				<rect x="38.5" y="96.5" style="fill:#68FFF3;" width="13" height="12"/>
				<rect x="38.5" y="84.5" style="fill:#68FFF3;" width="13" height="12"/>
				<rect x="38.5" y="72.5" style="fill:#68FFF3;" width="13" height="12"/>
				<rect x="38.5" y="59.5" style="fill:#68FFF3;" width="13" height="13"/>
				<rect x="38.5" y="47.5" style="fill:#68FFF3;" width="13" height="12"/>
				<rect x="38.5" y="35.5" style="fill:#68FFF3;" width="13" height="12"/>
				<rect x="38.5" y="23.5" style="fill:#68FFF3;" width="13" height="12"/>
				<rect x="25.5" y="96.5" style="fill:#68FFF3;" width="13" height="12"/>
				<rect x="25.5" y="84.5" style="fill:#68FFF3;" width="13" height="12"/>
				<rect x="25.5" y="72.5" style="fill:#68FFF3;" width="13" height="12"/>
				<rect x="25.5" y="59.5" style="fill:#68FFF3;" width="13" height="13"/>
				<rect x="25.5" y="47.5" style="fill:#68FFF3;" width="13" height="12"/>
				<rect x="25.5" y="35.5" style="fill:#68FFF3;" width="13" height="12"/>
				<rect x="25.5" y="23.5" style="fill:#68FFF3;" width="13" height="12"/>
			</g>
			<g>
			</g>
		</g>
	</g>
</g>
<g id="Layer_3">
	<g>
		<g id="XMLID_3_">
			<g>
				<rect x="129.5" y="96.25" style="fill:#68FFF3;" width="13" height="12"/>
				<rect x="129.5" y="84.25" style="fill:#68FFF3;" width="13" height="12"/>
				<rect x="129.5" y="72.25" style="fill:#68FFF3;" width="13" height="12"/>
				<rect x="129.5" y="59.25" style="fill:#68FFF3;" width="13" height="13"/>
				<rect x="129.5" y="47.25" style="fill:#68FFF3;" width="13" height="12"/>
				<rect x="129.5" y="35.25" style="fill:#68FFF3;" width="13" height="12"/>
				<rect x="129.5" y="23.25" style="fill:#68FFF3;" width="13" height="12"/>
				<rect x="116.5" y="96.25" style="fill:#68FFF3;" width="13" height="12"/>
				<rect x="116.5" y="84.25" style="fill:#68FFF3;" width="13" height="12"/>
				<rect x="116.5" y="72.25" style="fill:#68FFF3;" width="13" height="12"/>
				<rect x="116.5" y="59.25" style="fill:#68FFF3;" width="13" height="13"/>
				<rect x="116.5" y="47.25" style="fill:#68FFF3;" width="13" height="12"/>
				<rect x="116.5" y="35.25" style="fill:#68FFF3;" width="13" height="12"/>
				<rect x="116.5" y="23.25" style="fill:#68FFF3;" width="13" height="12"/>
				<rect x="103.5" y="96.25" style="fill:#68FFF3;" width="13" height="12"/>
				<rect x="103.5" y="84.25" style="fill:#68FFF3;" width="13" height="12"/>
				<rect x="103.5" y="72.25" style="fill:#68FFF3;" width="13" height="12"/>
				<rect x="103.5" y="59.25" style="fill:#68FFF3;" width="13" height="13"/>
				<rect x="103.5" y="47.25" style="fill:#68FFF3;" width="13" height="12"/>
				<rect x="103.5" y="35.25" style="fill:#68FFF3;" width="13" height="12"/>
				<rect x="103.5" y="23.25" style="fill:#68FFF3;" width="13" height="12"/>
				<rect x="90.5" y="96.25" style="fill:#68FFF3;" width="13" height="12"/>
				<rect x="90.5" y="84.25" style="fill:#68FFF3;" width="13" height="12"/>
				<rect x="90.5" y="72.25" style="fill:#68FFF3;" width="13" height="12"/>
				<rect x="90.5" y="59.25" style="fill:#68FFF3;" width="13" height="13"/>
				<rect x="90.5" y="47.25" style="fill:#68FFF3;" width="13" height="12"/>
				<rect x="90.5" y="35.25" style="fill:#68FFF3;" width="13" height="12"/>
				<rect x="90.5" y="23.25" style="fill:#68FFF3;" width="13" height="12"/>
				<rect x="77.5" y="96.25" style="fill:#68FFF3;" width="13" height="12"/>
				<rect x="77.5" y="84.25" style="fill:#68FFF3;" width="13" height="12"/>
				<rect x="77.5" y="72.25" style="fill:#68FFF3;" width="13" height="12"/>
				<rect x="77.5" y="59.25" style="fill:#68FFF3;" width="13" height="13"/>
				<rect x="77.5" y="47.25" style="fill:#68FFF3;" width="13" height="12"/>
				<rect x="77.5" y="35.25" style="fill:#68FFF3;" width="13" height="12"/>
				<rect x="77.5" y="23.25" style="fill:#68FFF3;" width="13" height="12"/>
				<rect x="64.5" y="96.25" style="fill:#68FFF3;" width="13" height="12"/>
				<rect x="64.5" y="84.25" style="fill:#68FFF3;" width="13" height="12"/>
				<rect x="64.5" y="72.25" style="fill:#68FFF3;" width="13" height="12"/>
				<rect x="64.5" y="59.25" style="fill:#68FFF3;" width="13" height="13"/>
				<rect x="64.5" y="47.25" style="fill:#68FFF3;" width="13" height="12"/>
				<rect x="64.5" y="35.25" style="fill:#68FFF3;" width="13" height="12"/>
				<rect x="64.5" y="23.25" style="fill:#68FFF3;" width="13" height="12"/>
			</g>
			<g>
			</g>
		</g>
	</g>
</g>
<g id="Layer_4">
	<g>
		<g id="XMLID_10_">
			<g>
				<rect x="183.75" y="96.75" style="fill:#68FFF3;" width="13" height="12"/>
				<rect x="183.75" y="84.75" style="fill:#68FFF3;" width="13" height="12"/>
				<rect x="183.75" y="72.75" style="fill:#68FFF3;" width="13" height="12"/>
				<rect x="183.75" y="59.75" style="fill:#68FFF3;" width="13" height="13"/>
				<rect x="183.75" y="47.75" style="fill:#68FFF3;" width="13" height="12"/>
				<rect x="183.75" y="35.75" style="fill:#68FFF3;" width="13" height="12"/>
				<rect x="183.75" y="23.75" style="fill:#68FFF3;" width="13" height="12"/>
				<rect x="170.75" y="96.75" style="fill:#68FFF3;" width="13" height="12"/>
				<rect x="170.75" y="84.75" style="fill:#68FFF3;" width="13" height="12"/>
				<rect x="170.75" y="72.75" style="fill:#68FFF3;" width="13" height="12"/>
				<rect x="170.75" y="59.75" style="fill:#68FFF3;" width="13" height="13"/>
				<rect x="170.75" y="47.75" style="fill:#68FFF3;" width="13" height="12"/>
				<rect x="170.75" y="35.75" style="fill:#68FFF3;" width="13" height="12"/>
				<rect x="170.75" y="23.75" style="fill:#68FFF3;" width="13" height="12"/>
				<rect x="157.75" y="96.75" style="fill:#68FFF3;" width="13" height="12"/>
				<rect x="157.75" y="84.75" style="fill:#68FFF3;" width="13" height="12"/>
				<rect x="157.75" y="72.75" style="fill:#68FFF3;" width="13" height="12"/>
				<rect x="157.75" y="59.75" style="fill:#68FFF3;" width="13" height="13"/>
				<rect x="157.75" y="47.75" style="fill:#68FFF3;" width="13" height="12"/>
				<rect x="157.75" y="35.75" style="fill:#68FFF3;" width="13" height="12"/>
				<rect x="157.75" y="23.75" style="fill:#68FFF3;" width="13" height="12"/>
				<rect x="144.75" y="96.75" style="fill:#68FFF3;" width="13" height="12"/>
				<rect x="144.75" y="84.75" style="fill:#68FFF3;" width="13" height="12"/>
				<rect x="144.75" y="72.75" style="fill:#68FFF3;" width="13" height="12"/>
				<rect x="144.75" y="59.75" style="fill:#68FFF3;" width="13" height="13"/>
				<rect x="144.75" y="47.75" style="fill:#68FFF3;" width="13" height="12"/>
				<rect x="144.75" y="35.75" style="fill:#68FFF3;" width="13" height="12"/>
				<rect x="144.75" y="23.75" style="fill:#68FFF3;" width="13" height="12"/>
				<rect x="131.75" y="96.75" style="fill:#68FFF3;" width="13" height="12"/>
				<rect x="131.75" y="84.75" style="fill:#68FFF3;" width="13" height="12"/>
				<rect x="131.75" y="72.75" style="fill:#68FFF3;" width="13" height="12"/>
				<rect x="131.75" y="59.75" style="fill:#68FFF3;" width="13" height="13"/>
				<rect x="131.75" y="47.75" style="fill:#68FFF3;" width="13" height="12"/>
				<rect x="131.75" y="35.75" style="fill:#68FFF3;" width="13" height="12"/>
				<rect x="131.75" y="23.75" style="fill:#68FFF3;" width="13" height="12"/>
				<rect x="118.75" y="96.75" style="fill:#68FFF3;" width="13" height="12"/>
				<rect x="118.75" y="84.75" style="fill:#68FFF3;" width="13" height="12"/>
				<rect x="118.75" y="72.75" style="fill:#68FFF3;" width="13" height="12"/>
				<rect x="118.75" y="59.75" style="fill:#68FFF3;" width="13" height="13"/>
				<rect x="118.75" y="47.75" style="fill:#68FFF3;" width="13" height="12"/>
				<rect x="118.75" y="35.75" style="fill:#68FFF3;" width="13" height="12"/>
				<rect x="118.75" y="23.75" style="fill:#68FFF3;" width="13" height="12"/>
			</g>
			<g>
			</g>
		</g>
	</g>
</g>
<g id="Layer_5">
	<g>
		<g id="XMLID_4_">
			<g>
				<rect x="248.5" y="96.5" style="fill:#68FFF3;" width="13" height="12"/>
				<rect x="248.5" y="84.5" style="fill:#68FFF3;" width="13" height="12"/>
				<rect x="248.5" y="72.5" style="fill:#68FFF3;" width="13" height="12"/>
				<rect x="248.5" y="59.5" style="fill:#68FFF3;" width="13" height="13"/>
				<rect x="248.5" y="47.5" style="fill:#68FFF3;" width="13" height="12"/>
				<rect x="248.5" y="35.5" style="fill:#68FFF3;" width="13" height="12"/>
				<rect x="248.5" y="23.5" style="fill:#68FFF3;" width="13" height="12"/>
				<rect x="235.5" y="96.5" style="fill:#68FFF3;" width="13" height="12"/>
				<rect x="235.5" y="84.5" style="fill:#68FFF3;" width="13" height="12"/>
				<rect x="235.5" y="72.5" style="fill:#68FFF3;" width="13" height="12"/>
				<rect x="235.5" y="59.5" style="fill:#68FFF3;" width="13" height="13"/>
				<rect x="235.5" y="47.5" style="fill:#68FFF3;" width="13" height="12"/>
				<rect x="235.5" y="35.5" style="fill:#68FFF3;" width="13" height="12"/>
				<rect x="235.5" y="23.5" style="fill:#68FFF3;" width="13" height="12"/>
				<rect x="222.5" y="96.5" style="fill:#68FFF3;" width="13" height="12"/>
				<rect x="222.5" y="84.5" style="fill:#68FFF3;" width="13" height="12"/>
				<rect x="222.5" y="72.5" style="fill:#68FFF3;" width="13" height="12"/>
				<rect x="222.5" y="59.5" style="fill:#68FFF3;" width="13" height="13"/>
				<rect x="222.5" y="47.5" style="fill:#68FFF3;" width="13" height="12"/>
				<rect x="222.5" y="35.5" style="fill:#68FFF3;" width="13" height="12"/>
				<rect x="222.5" y="23.5" style="fill:#68FFF3;" width="13" height="12"/>
				<rect x="209.5" y="96.5" style="fill:#68FFF3;" width="13" height="12"/>
				<rect x="209.5" y="84.5" style="fill:#68FFF3;" width="13" height="12"/>
				<rect x="209.5" y="72.5" style="fill:#68FFF3;" width="13" height="12"/>
				<rect x="209.5" y="59.5" style="fill:#68FFF3;" width="13" height="13"/>
				<rect x="209.5" y="47.5" style="fill:#68FFF3;" width="13" height="12"/>
				<rect x="209.5" y="35.5" style="fill:#68FFF3;" width="13" height="12"/>
				<rect x="209.5" y="23.5" style="fill:#68FFF3;" width="13" height="12"/>
				<rect x="196.5" y="96.5" style="fill:#68FFF3;" width="13" height="12"/>
				<rect x="196.5" y="84.5" style="fill:#68FFF3;" width="13" height="12"/>
				<rect x="196.5" y="72.5" style="fill:#68FFF3;" width="13" height="12"/>
				<rect x="196.5" y="59.5" style="fill:#68FFF3;" width="13" height="13"/>
				<rect x="196.5" y="47.5" style="fill:#68FFF3;" width="13" height="12"/>
				<rect x="196.5" y="35.5" style="fill:#68FFF3;" width="13" height="12"/>
				<rect x="196.5" y="23.5" style="fill:#68FFF3;" width="13" height="12"/>
				<rect x="183.5" y="96.5" style="fill:#68FFF3;" width="13" height="12"/>
				<rect x="183.5" y="84.5" style="fill:#68FFF3;" width="13" height="12"/>
				<rect x="183.5" y="72.5" style="fill:#68FFF3;" width="13" height="12"/>
				<rect x="183.5" y="59.5" style="fill:#68FFF3;" width="13" height="13"/>
				<rect x="183.5" y="47.5" style="fill:#68FFF3;" width="13" height="12"/>
				<rect x="183.5" y="35.5" style="fill:#68FFF3;" width="13" height="12"/>
				<rect x="183.5" y="23.5" style="fill:#68FFF3;" width="13" height="12"/>
			</g>
			<g>
			</g>
		</g>
	</g>
</g>
<g id="Layer_6">
	<g>
		<g id="XMLID_5_">
			<g>
				<rect x="313.5" y="96.5" style="fill:#68FFF3;" width="13" height="12"/>
				<rect x="313.5" y="84.5" style="fill:#68FFF3;" width="13" height="12"/>
				<rect x="313.5" y="72.5" style="fill:#68FFF3;" width="13" height="12"/>
				<rect x="313.5" y="59.5" style="fill:#68FFF3;" width="13" height="13"/>
				<rect x="313.5" y="47.5" style="fill:#68FFF3;" width="13" height="12"/>
				<rect x="313.5" y="35.5" style="fill:#68FFF3;" width="13" height="12"/>
				<rect x="313.5" y="23.5" style="fill:#68FFF3;" width="13" height="12"/>
				<rect x="300.5" y="96.5" style="fill:#68FFF3;" width="13" height="12"/>
				<rect x="300.5" y="84.5" style="fill:#68FFF3;" width="13" height="12"/>
				<rect x="300.5" y="72.5" style="fill:#68FFF3;" width="13" height="12"/>
				<rect x="300.5" y="59.5" style="fill:#68FFF3;" width="13" height="13"/>
				<rect x="300.5" y="47.5" style="fill:#68FFF3;" width="13" height="12"/>
				<rect x="300.5" y="35.5" style="fill:#68FFF3;" width="13" height="12"/>
				<rect x="300.5" y="23.5" style="fill:#68FFF3;" width="13" height="12"/>
				<rect x="287.5" y="96.5" style="fill:#68FFF3;" width="13" height="12"/>
				<rect x="287.5" y="84.5" style="fill:#68FFF3;" width="13" height="12"/>
				<rect x="287.5" y="72.5" style="fill:#68FFF3;" width="13" height="12"/>
				<rect x="287.5" y="59.5" style="fill:#68FFF3;" width="13" height="13"/>
				<rect x="287.5" y="47.5" style="fill:#68FFF3;" width="13" height="12"/>
				<rect x="287.5" y="35.5" style="fill:#68FFF3;" width="13" height="12"/>
				<rect x="287.5" y="23.5" style="fill:#68FFF3;" width="13" height="12"/>
				<rect x="274.5" y="96.5" style="fill:#68FFF3;" width="13" height="12"/>
				<rect x="274.5" y="84.5" style="fill:#68FFF3;" width="13" height="12"/>
				<rect x="274.5" y="72.5" style="fill:#68FFF3;" width="13" height="12"/>
				<rect x="274.5" y="59.5" style="fill:#68FFF3;" width="13" height="13"/>
				<rect x="274.5" y="47.5" style="fill:#68FFF3;" width="13" height="12"/>
				<rect x="274.5" y="35.5" style="fill:#68FFF3;" width="13" height="12"/>
				<rect x="274.5" y="23.5" style="fill:#68FFF3;" width="13" height="12"/>
				<rect x="261.5" y="96.5" style="fill:#68FFF3;" width="13" height="12"/>
				<rect x="261.5" y="84.5" style="fill:#68FFF3;" width="13" height="12"/>
				<rect x="261.5" y="72.5" style="fill:#68FFF3;" width="13" height="12"/>
				<rect x="261.5" y="59.5" style="fill:#68FFF3;" width="13" height="13"/>
				<rect x="261.5" y="47.5" style="fill:#68FFF3;" width="13" height="12"/>
				<rect x="261.5" y="35.5" style="fill:#68FFF3;" width="13" height="12"/>
				<rect x="261.5" y="23.5" style="fill:#68FFF3;" width="13" height="12"/>
				<rect x="248.5" y="96.5" style="fill:#68FFF3;" width="13" height="12"/>
				<rect x="248.5" y="84.5" style="fill:#68FFF3;" width="13" height="12"/>
				<rect x="248.5" y="72.5" style="fill:#68FFF3;" width="13" height="12"/>
				<rect x="248.5" y="59.5" style="fill:#68FFF3;" width="13" height="13"/>
				<rect x="248.5" y="47.5" style="fill:#68FFF3;" width="13" height="12"/>
				<rect x="248.5" y="35.5" style="fill:#68FFF3;" width="13" height="12"/>
				<rect x="248.5" y="23.5" style="fill:#68FFF3;" width="13" height="12"/>
			</g>
			<g>
			</g>
		</g>
	</g>
</g>
<g id="Layer_7">
	<g>
		<g id="XMLID_6_">
			<g>
				<rect x="363.25" y="96.5" style="fill:#68FFF3;" width="13" height="12"/>
				<rect x="363.25" y="84.5" style="fill:#68FFF3;" width="13" height="12"/>
				<rect x="363.25" y="72.5" style="fill:#68FFF3;" width="13" height="12"/>
				<rect x="363.25" y="59.5" style="fill:#68FFF3;" width="13" height="13"/>
				<rect x="363.25" y="47.5" style="fill:#68FFF3;" width="13" height="12"/>
				<rect x="363.25" y="35.5" style="fill:#68FFF3;" width="13" height="12"/>
				<rect x="363.25" y="23.5" style="fill:#68FFF3;" width="13" height="12"/>
				<rect x="350.25" y="96.5" style="fill:#68FFF3;" width="13" height="12"/>
				<rect x="350.25" y="84.5" style="fill:#68FFF3;" width="13" height="12"/>
				<rect x="350.25" y="72.5" style="fill:#68FFF3;" width="13" height="12"/>
				<rect x="350.25" y="59.5" style="fill:#68FFF3;" width="13" height="13"/>
				<rect x="350.25" y="47.5" style="fill:#68FFF3;" width="13" height="12"/>
				<rect x="350.25" y="35.5" style="fill:#68FFF3;" width="13" height="12"/>
				<rect x="350.25" y="23.5" style="fill:#68FFF3;" width="13" height="12"/>
				<rect x="337.25" y="96.5" style="fill:#68FFF3;" width="13" height="12"/>
				<rect x="337.25" y="84.5" style="fill:#68FFF3;" width="13" height="12"/>
				<rect x="337.25" y="72.5" style="fill:#68FFF3;" width="13" height="12"/>
				<rect x="337.25" y="59.5" style="fill:#68FFF3;" width="13" height="13"/>
				<rect x="337.25" y="47.5" style="fill:#68FFF3;" width="13" height="12"/>
				<rect x="337.25" y="35.5" style="fill:#68FFF3;" width="13" height="12"/>
				<rect x="337.25" y="23.5" style="fill:#68FFF3;" width="13" height="12"/>
				<rect x="324.25" y="96.5" style="fill:#68FFF3;" width="13" height="12"/>
				<rect x="324.25" y="84.5" style="fill:#68FFF3;" width="13" height="12"/>
				<rect x="324.25" y="72.5" style="fill:#68FFF3;" width="13" height="12"/>
				<rect x="324.25" y="59.5" style="fill:#68FFF3;" width="13" height="13"/>
				<rect x="324.25" y="47.5" style="fill:#68FFF3;" width="13" height="12"/>
				<rect x="324.25" y="35.5" style="fill:#68FFF3;" width="13" height="12"/>
				<rect x="324.25" y="23.5" style="fill:#68FFF3;" width="13" height="12"/>
				<rect x="311.25" y="96.5" style="fill:#68FFF3;" width="13" height="12"/>
				<rect x="311.25" y="84.5" style="fill:#68FFF3;" width="13" height="12"/>
				<rect x="311.25" y="72.5" style="fill:#68FFF3;" width="13" height="12"/>
				<rect x="311.25" y="59.5" style="fill:#68FFF3;" width="13" height="13"/>
				<rect x="311.25" y="47.5" style="fill:#68FFF3;" width="13" height="12"/>
				<rect x="311.25" y="35.5" style="fill:#68FFF3;" width="13" height="12"/>
				<rect x="311.25" y="23.5" style="fill:#68FFF3;" width="13" height="12"/>
				<rect x="298.25" y="96.5" style="fill:#68FFF3;" width="13" height="12"/>
				<rect x="298.25" y="84.5" style="fill:#68FFF3;" width="13" height="12"/>
				<rect x="298.25" y="72.5" style="fill:#68FFF3;" width="13" height="12"/>
				<rect x="298.25" y="59.5" style="fill:#68FFF3;" width="13" height="13"/>
				<rect x="298.25" y="47.5" style="fill:#68FFF3;" width="13" height="12"/>
				<rect x="298.25" y="35.5" style="fill:#68FFF3;" width="13" height="12"/>
				<rect x="298.25" y="23.5" style="fill:#68FFF3;" width="13" height="12"/>
			</g>
			<g>
			</g>
		</g>
	</g>
</g>
<g id="Layer_8">
	<g>
		<g id="XMLID_7_">
			<g>
				<rect x="348.5" y="36.5" style="fill:#FFFFFF;" width="13" height="12"/>
				<rect x="348.5" y="72.5" style="fill:#FFFFFF;" width="13" height="12"/>
				<rect x="348.5" y="60.5" style="fill:#68FFF3;" width="13" height="12"/>
				<rect x="348.5" y="48.5" style="fill:#68FFF3;" width="13" height="12"/>
				<rect x="335.5" y="84.5" style="fill:#FFFFFF;" width="13" height="12"/>
				<rect x="335.5" y="60.5" style="fill:#FFFFFF;" width="13" height="12"/>
				<rect x="335.5" y="36.5" style="fill:#FFFFFF;" width="13" height="12"/>
				<rect x="323.5" y="72.5" style="fill:#FFFFFF;" width="12" height="12"/>
				<rect x="323.5" y="60.5" style="fill:#FFFFFF;" width="12" height="12"/>
				<rect x="323.5" y="48.5" style="fill:#FFFFFF;" width="12" height="12"/>
				<rect x="297.5" y="84.5" style="fill:#FFFFFF;" width="13" height="12"/>
				<rect x="297.5" y="72.5" style="fill:#FFFFFF;" width="13" height="12"/>
				<rect x="297.5" y="60.5" style="fill:#FFFFFF;" width="13" height="12"/>
				<rect x="297.5" y="48.5" style="fill:#FFFFFF;" width="13" height="12"/>
				<rect x="297.5" y="36.5" style="fill:#FFFFFF;" width="13" height="12"/>
				<rect x="284.5" y="72.5" style="fill:#FFFFFF;" width="13" height="12"/>
				<rect x="284.5" y="60.5" style="fill:#FFFFFF;" width="13" height="12"/>
				<rect x="284.5" y="48.5" style="fill:#FFFFFF;" width="13" height="12"/>
				<rect x="271.5" y="84.5" style="fill:#FFFFFF;" width="13" height="12"/>
				<rect x="271.5" y="72.5" style="fill:#FFFFFF;" width="13" height="12"/>
				<rect x="271.5" y="60.5" style="fill:#FFFFFF;" width="13" height="12"/>
				<rect x="271.5" y="48.5" style="fill:#FFFFFF;" width="13" height="12"/>
				<rect x="271.5" y="36.5" style="fill:#FFFFFF;" width="13" height="12"/>
				<rect x="245.5" y="84.5" style="fill:#FFFFFF;" width="13" height="12"/>
				<rect x="245.5" y="72.5" style="fill:#FFFFFF;" width="13" height="12"/>
				<rect x="245.5" y="60.5" style="fill:#FFFFFF;" width="13" height="12"/>
				<rect x="245.5" y="48.5" style="fill:#FFFFFF;" width="13" height="12"/>
				<rect x="245.5" y="36.5" style="fill:#FFFFFF;" width="13" height="12"/>
				<rect x="219.5" y="72.5" style="fill:#FFFFFF;" width="13" height="12"/>
				<rect x="219.5" y="60.5" style="fill:#FFFFFF;" width="13" height="12"/>
				<rect x="219.5" y="48.5" style="fill:#FFFFFF;" width="13" height="12"/>
				<rect x="206.5" y="84.5" style="fill:#FFFFFF;" width="13" height="12"/>
				<rect x="206.5" y="36.5" style="fill:#FFFFFF;" width="13" height="12"/>
				<rect x="194.5" y="84.5" style="fill:#FFFFFF;" width="12" height="12"/>
				<rect x="194.5" y="72.5" style="fill:#FFFFFF;" width="12" height="12"/>
				<rect x="194.5" y="60.5" style="fill:#FFFFFF;" width="12" height="12"/>
				<rect x="194.5" y="48.5" style="fill:#FFFFFF;" width="12" height="12"/>
				<rect x="194.5" y="36.5" style="fill:#FFFFFF;" width="12" height="12"/>
				<rect x="168.5" y="84.5" style="fill:#FFFFFF;" width="13" height="12"/>
				<rect x="168.5" y="72.5" style="fill:#FFFFFF;" width="13" height="12"/>
				<rect x="168.5" y="60.5" style="fill:#FFFFFF;" width="13" height="12"/>
				<rect x="155.5" y="72.5" style="fill:#FFFFFF;" width="13" height="12"/>
				<rect x="155.5" y="48.5" style="fill:#FFFFFF;" width="13" height="12"/>
				<rect x="155.5" y="36.5" style="fill:#FFFFFF;" width="13" height="12"/>
				<rect x="142.5" y="84.5" style="fill:#FFFFFF;" width="13" height="12"/>
				<rect x="142.5" y="72.5" style="fill:#FFFFFF;" width="13" height="12"/>
				<rect x="142.5" y="60.5" style="fill:#FFFFFF;" width="13" height="12"/>
				<rect x="116.5" y="72.5" style="fill:#FFFFFF;" width="13" height="12"/>
				<rect x="116.5" y="60.5" style="fill:#FFFFFF;" width="13" height="12"/>
				<rect x="116.5" y="48.5" style="fill:#FFFFFF;" width="13" height="12"/>
				<rect x="103.5" y="84.5" style="fill:#FFFFFF;" width="13" height="12"/>
				<rect x="103.5" y="36.5" style="fill:#FFFFFF;" width="13" height="12"/>
				<rect x="90.5" y="72.5" style="fill:#FFFFFF;" width="13" height="12"/>
				<rect x="90.5" y="60.5" style="fill:#FFFFFF;" width="13" height="12"/>
				<rect x="90.5" y="48.5" style="fill:#FFFFFF;" width="13" height="12"/>
				<rect x="65.5" y="84.5" style="fill:#FFFFFF;" width="12" height="12"/>
				<rect x="52.5" y="84.5" style="fill:#FFFFFF;" width="13" height="12"/>
				<rect x="39.5" y="84.5" style="fill:#FFFFFF;" width="13" height="12"/>
				<rect x="39.5" y="72.5" style="fill:#FFFFFF;" width="13" height="12"/>
				<rect x="39.5" y="60.5" style="fill:#FFFFFF;" width="13" height="12"/>
				<rect x="39.5" y="48.5" style="fill:#FFFFFF;" width="13" height="12"/>
				<rect x="39.5" y="36.5" style="fill:#FFFFFF;" width="13" height="12"/>
			</g>
			<g>
				<polygon style="fill:none;stroke:#000000;stroke-miterlimit:10;" points="0.5,12.5 0.5,0.5 13.5,0.5 26.5,0.5 39.5,0.5 
					52.5,0.5 65.5,0.5 77.5,0.5 90.5,0.5 103.5,0.5 116.5,0.5 129.5,0.5 142.5,0.5 155.5,0.5 168.5,0.5 181.5,0.5 194.5,0.5 
					206.5,0.5 219.5,0.5 232.5,0.5 245.5,0.5 258.5,0.5 271.5,0.5 284.5,0.5 297.5,0.5 310.5,0.5 323.5,0.5 335.5,0.5 348.5,0.5 
					361.5,0.5 374.5,0.5 387.5,0.5 400.5,0.5 400.5,12.5 400.5,24.5 400.5,36.5 400.5,48.5 400.5,60.5 400.5,72.5 400.5,84.5 
					400.5,96.5 400.5,108.5 400.5,120.5 400.5,133.5 387.5,133.5 374.5,133.5 361.5,133.5 348.5,133.5 335.5,133.5 323.5,133.5 
					310.5,133.5 297.5,133.5 284.5,133.5 271.5,133.5 258.5,133.5 245.5,133.5 232.5,133.5 219.5,133.5 206.5,133.5 194.5,133.5 
					181.5,133.5 168.5,133.5 155.5,133.5 142.5,133.5 129.5,133.5 116.5,133.5 103.5,133.5 90.5,133.5 77.5,133.5 65.5,133.5 
					52.5,133.5 39.5,133.5 26.5,133.5 13.5,133.5 0.5,133.5 0.5,120.5 0.5,108.5 0.5,96.5 0.5,84.5 0.5,72.5 0.5,60.5 0.5,48.5 
					0.5,36.5 0.5,24.5 				"/>
				<polyline style="fill:none;stroke:#000000;stroke-miterlimit:10;" points="0,120.5 0.5,120.5 13.5,120.5 26.5,120.5 39.5,120.5 
					52.5,120.5 65.5,120.5 77.5,120.5 90.5,120.5 103.5,120.5 116.5,120.5 129.5,120.5 142.5,120.5 155.5,120.5 168.5,120.5 
					181.5,120.5 194.5,120.5 206.5,120.5 219.5,120.5 232.5,120.5 245.5,120.5 258.5,120.5 271.5,120.5 284.5,120.5 297.5,120.5 
					310.5,120.5 323.5,120.5 335.5,120.5 348.5,120.5 361.5,120.5 374.5,120.5 387.5,120.5 400,120.5 				"/>
				<polyline style="fill:none;stroke:#000000;stroke-miterlimit:10;" points="0,108.5 0.5,108.5 13.5,108.5 26.5,108.5 39.5,108.5 
					52.5,108.5 65.5,108.5 77.5,108.5 90.5,108.5 103.5,108.5 116.5,108.5 129.5,108.5 142.5,108.5 155.5,108.5 168.5,108.5 
					181.5,108.5 194.5,108.5 206.5,108.5 219.5,108.5 232.5,108.5 245.5,108.5 258.5,108.5 271.5,108.5 284.5,108.5 297.5,108.5 
					310.5,108.5 323.5,108.5 335.5,108.5 348.5,108.5 361.5,108.5 374.5,108.5 387.5,108.5 400,108.5 				"/>
				<polyline style="fill:none;stroke:#000000;stroke-miterlimit:10;" points="0,96.5 0.5,96.5 13.5,96.5 26.5,96.5 39.5,96.5 
					52.5,96.5 65.5,96.5 77.5,96.5 90.5,96.5 103.5,96.5 116.5,96.5 129.5,96.5 142.5,96.5 155.5,96.5 168.5,96.5 181.5,96.5 
					194.5,96.5 206.5,96.5 219.5,96.5 232.5,96.5 245.5,96.5 258.5,96.5 271.5,96.5 284.5,96.5 297.5,96.5 310.5,96.5 323.5,96.5 
					335.5,96.5 348.5,96.5 361.5,96.5 374.5,96.5 387.5,96.5 400,96.5 				"/>
				<polyline style="fill:none;stroke:#000000;stroke-miterlimit:10;" points="0,84.5 0.5,84.5 13.5,84.5 26.5,84.5 39.5,84.5 
					52.5,84.5 65.5,84.5 77.5,84.5 90.5,84.5 103.5,84.5 116.5,84.5 129.5,84.5 142.5,84.5 155.5,84.5 168.5,84.5 181.5,84.5 
					194.5,84.5 206.5,84.5 219.5,84.5 232.5,84.5 245.5,84.5 258.5,84.5 271.5,84.5 284.5,84.5 297.5,84.5 310.5,84.5 323.5,84.5 
					335.5,84.5 348.5,84.5 361.5,84.5 374.5,84.5 387.5,84.5 400,84.5 				"/>
				<polyline style="fill:none;stroke:#000000;stroke-miterlimit:10;" points="0,72.5 0.5,72.5 13.5,72.5 26.5,72.5 39.5,72.5 
					52.5,72.5 65.5,72.5 77.5,72.5 90.5,72.5 103.5,72.5 116.5,72.5 129.5,72.5 142.5,72.5 155.5,72.5 168.5,72.5 181.5,72.5 
					194.5,72.5 206.5,72.5 219.5,72.5 232.5,72.5 245.5,72.5 258.5,72.5 271.5,72.5 284.5,72.5 297.5,72.5 310.5,72.5 323.5,72.5 
					335.5,72.5 348.5,72.5 361.5,72.5 374.5,72.5 387.5,72.5 400,72.5 				"/>
				<polyline style="fill:none;stroke:#000000;stroke-miterlimit:10;" points="0,60.5 0.5,60.5 13.5,60.5 26.5,60.5 39.5,60.5 
					52.5,60.5 65.5,60.5 77.5,60.5 90.5,60.5 103.5,60.5 116.5,60.5 129.5,60.5 142.5,60.5 155.5,60.5 168.5,60.5 181.5,60.5 
					194.5,60.5 206.5,60.5 219.5,60.5 232.5,60.5 245.5,60.5 258.5,60.5 271.5,60.5 284.5,60.5 297.5,60.5 310.5,60.5 323.5,60.5 
					335.5,60.5 348.5,60.5 361.5,60.5 374.5,60.5 387.5,60.5 400,60.5 				"/>
				<polyline style="fill:none;stroke:#000000;stroke-miterlimit:10;" points="0,48.5 0.5,48.5 13.5,48.5 26.5,48.5 39.5,48.5 
					52.5,48.5 65.5,48.5 77.5,48.5 90.5,48.5 103.5,48.5 116.5,48.5 129.5,48.5 142.5,48.5 155.5,48.5 168.5,48.5 181.5,48.5 
					194.5,48.5 206.5,48.5 219.5,48.5 232.5,48.5 245.5,48.5 258.5,48.5 271.5,48.5 284.5,48.5 297.5,48.5 310.5,48.5 323.5,48.5 
					335.5,48.5 348.5,48.5 361.5,48.5 374.5,48.5 387.5,48.5 400,48.5 				"/>
				<polyline style="fill:none;stroke:#000000;stroke-miterlimit:10;" points="0,36.5 0.5,36.5 13.5,36.5 26.5,36.5 39.5,36.5 
					52.5,36.5 65.5,36.5 77.5,36.5 90.5,36.5 103.5,36.5 116.5,36.5 129.5,36.5 142.5,36.5 155.5,36.5 168.5,36.5 181.5,36.5 
					194.5,36.5 206.5,36.5 219.5,36.5 232.5,36.5 245.5,36.5 258.5,36.5 271.5,36.5 284.5,36.5 297.5,36.5 310.5,36.5 323.5,36.5 
					335.5,36.5 348.5,36.5 361.5,36.5 374.5,36.5 387.5,36.5 400,36.5 				"/>
				<polyline style="fill:none;stroke:#000000;stroke-miterlimit:10;" points="0,24.5 0.5,24.5 13.5,24.5 26.5,24.5 39.5,24.5 
					52.5,24.5 65.5,24.5 77.5,24.5 90.5,24.5 103.5,24.5 116.5,24.5 129.5,24.5 142.5,24.5 155.5,24.5 168.5,24.5 181.5,24.5 
					194.5,24.5 206.5,24.5 219.5,24.5 232.5,24.5 245.5,24.5 258.5,24.5 271.5,24.5 284.5,24.5 297.5,24.5 310.5,24.5 323.5,24.5 
					335.5,24.5 348.5,24.5 361.5,24.5 374.5,24.5 387.5,24.5 400,24.5 				"/>
				<polyline style="fill:none;stroke:#000000;stroke-miterlimit:10;" points="0,12.5 0.5,12.5 13.5,12.5 26.5,12.5 39.5,12.5 
					52.5,12.5 65.5,12.5 77.5,12.5 90.5,12.5 103.5,12.5 116.5,12.5 129.5,12.5 142.5,12.5 155.5,12.5 168.5,12.5 181.5,12.5 
					194.5,12.5 206.5,12.5 219.5,12.5 232.5,12.5 245.5,12.5 258.5,12.5 271.5,12.5 284.5,12.5 297.5,12.5 310.5,12.5 323.5,12.5 
					335.5,12.5 348.5,12.5 361.5,12.5 374.5,12.5 387.5,12.5 400,12.5 				"/>
				<polyline style="fill:none;stroke:#000000;stroke-miterlimit:10;" points="387.5,0 387.5,0.5 387.5,12.5 387.5,24.5 387.5,36.5 
					387.5,48.5 387.5,60.5 387.5,72.5 387.5,84.5 387.5,96.5 387.5,108.5 387.5,120.5 387.5,133 				"/>
				<polyline style="fill:none;stroke:#000000;stroke-miterlimit:10;" points="374.5,0 374.5,0.5 374.5,12.5 374.5,24.5 374.5,36.5 
					374.5,48.5 374.5,60.5 374.5,72.5 374.5,84.5 374.5,96.5 374.5,108.5 374.5,120.5 374.5,133 				"/>
				<polyline style="fill:none;stroke:#000000;stroke-miterlimit:10;" points="361.5,0 361.5,0.5 361.5,12.5 361.5,24.5 361.5,36.5 
					361.5,48.5 361.5,60.5 361.5,72.5 361.5,84.5 361.5,96.5 361.5,108.5 361.5,120.5 361.5,133 				"/>
				<polyline style="fill:none;stroke:#000000;stroke-miterlimit:10;" points="348.5,0 348.5,0.5 348.5,12.5 348.5,24.5 348.5,36.5 
					348.5,48.5 348.5,60.5 348.5,72.5 348.5,84.5 348.5,96.5 348.5,108.5 348.5,120.5 348.5,133 				"/>
				<polyline style="fill:none;stroke:#000000;stroke-miterlimit:10;" points="335.5,0 335.5,0.5 335.5,12.5 335.5,24.5 335.5,36.5 
					335.5,48.5 335.5,60.5 335.5,72.5 335.5,84.5 335.5,96.5 335.5,108.5 335.5,120.5 335.5,133 				"/>
				<polyline style="fill:none;stroke:#000000;stroke-miterlimit:10;" points="323.5,0 323.5,0.5 323.5,12.5 323.5,24.5 323.5,36.5 
					323.5,48.5 323.5,60.5 323.5,72.5 323.5,84.5 323.5,96.5 323.5,108.5 323.5,120.5 323.5,133 				"/>
				<polyline style="fill:none;stroke:#000000;stroke-miterlimit:10;" points="310.5,0 310.5,0.5 310.5,12.5 310.5,24.5 310.5,36.5 
					310.5,48.5 310.5,60.5 310.5,72.5 310.5,84.5 310.5,96.5 310.5,108.5 310.5,120.5 310.5,133 				"/>
				<polyline style="fill:none;stroke:#000000;stroke-miterlimit:10;" points="297.5,0 297.5,0.5 297.5,12.5 297.5,24.5 297.5,36.5 
					297.5,48.5 297.5,60.5 297.5,72.5 297.5,84.5 297.5,96.5 297.5,108.5 297.5,120.5 297.5,133 				"/>
				<polyline style="fill:none;stroke:#000000;stroke-miterlimit:10;" points="284.5,0 284.5,0.5 284.5,12.5 284.5,24.5 284.5,36.5 
					284.5,48.5 284.5,60.5 284.5,72.5 284.5,84.5 284.5,96.5 284.5,108.5 284.5,120.5 284.5,133 				"/>
				<polyline style="fill:none;stroke:#000000;stroke-miterlimit:10;" points="271.5,0 271.5,0.5 271.5,12.5 271.5,24.5 271.5,36.5 
					271.5,48.5 271.5,60.5 271.5,72.5 271.5,84.5 271.5,96.5 271.5,108.5 271.5,120.5 271.5,133 				"/>
				<polyline style="fill:none;stroke:#000000;stroke-miterlimit:10;" points="258.5,0 258.5,0.5 258.5,12.5 258.5,24.5 258.5,36.5 
					258.5,48.5 258.5,60.5 258.5,72.5 258.5,84.5 258.5,96.5 258.5,108.5 258.5,120.5 258.5,133 				"/>
				<polyline style="fill:none;stroke:#000000;stroke-miterlimit:10;" points="245.5,0 245.5,0.5 245.5,12.5 245.5,24.5 245.5,36.5 
					245.5,48.5 245.5,60.5 245.5,72.5 245.5,84.5 245.5,96.5 245.5,108.5 245.5,120.5 245.5,133 				"/>
				<polyline style="fill:none;stroke:#000000;stroke-miterlimit:10;" points="232.5,0 232.5,0.5 232.5,12.5 232.5,24.5 232.5,36.5 
					232.5,48.5 232.5,60.5 232.5,72.5 232.5,84.5 232.5,96.5 232.5,108.5 232.5,120.5 232.5,133 				"/>
				<polyline style="fill:none;stroke:#000000;stroke-miterlimit:10;" points="219.5,0 219.5,0.5 219.5,12.5 219.5,24.5 219.5,36.5 
					219.5,48.5 219.5,60.5 219.5,72.5 219.5,84.5 219.5,96.5 219.5,108.5 219.5,120.5 219.5,133 				"/>
				<polyline style="fill:none;stroke:#000000;stroke-miterlimit:10;" points="206.5,0 206.5,0.5 206.5,12.5 206.5,24.5 206.5,36.5 
					206.5,48.5 206.5,60.5 206.5,72.5 206.5,84.5 206.5,96.5 206.5,108.5 206.5,120.5 206.5,133 				"/>
				<polyline style="fill:none;stroke:#000000;stroke-miterlimit:10;" points="194.5,0 194.5,0.5 194.5,12.5 194.5,24.5 194.5,36.5 
					194.5,48.5 194.5,60.5 194.5,72.5 194.5,84.5 194.5,96.5 194.5,108.5 194.5,120.5 194.5,133 				"/>
				<polyline style="fill:none;stroke:#000000;stroke-miterlimit:10;" points="181.5,0 181.5,0.5 181.5,12.5 181.5,24.5 181.5,36.5 
					181.5,48.5 181.5,60.5 181.5,72.5 181.5,84.5 181.5,96.5 181.5,108.5 181.5,120.5 181.5,133 				"/>
				<polyline style="fill:none;stroke:#000000;stroke-miterlimit:10;" points="168.5,0 168.5,0.5 168.5,12.5 168.5,24.5 168.5,36.5 
					168.5,48.5 168.5,60.5 168.5,72.5 168.5,84.5 168.5,96.5 168.5,108.5 168.5,120.5 168.5,133 				"/>
				<polyline style="fill:none;stroke:#000000;stroke-miterlimit:10;" points="155.5,0 155.5,0.5 155.5,12.5 155.5,24.5 155.5,36.5 
					155.5,48.5 155.5,60.5 155.5,72.5 155.5,84.5 155.5,96.5 155.5,108.5 155.5,120.5 155.5,133 				"/>
				<polyline style="fill:none;stroke:#000000;stroke-miterlimit:10;" points="142.5,0 142.5,0.5 142.5,12.5 142.5,24.5 142.5,36.5 
					142.5,48.5 142.5,60.5 142.5,72.5 142.5,84.5 142.5,96.5 142.5,108.5 142.5,120.5 142.5,133 				"/>
				<polyline style="fill:none;stroke:#000000;stroke-miterlimit:10;" points="129.5,0 129.5,0.5 129.5,12.5 129.5,24.5 129.5,36.5 
					129.5,48.5 129.5,60.5 129.5,72.5 129.5,84.5 129.5,96.5 129.5,108.5 129.5,120.5 129.5,133 				"/>
				<polyline style="fill:none;stroke:#000000;stroke-miterlimit:10;" points="116.5,0 116.5,0.5 116.5,12.5 116.5,24.5 116.5,36.5 
					116.5,48.5 116.5,60.5 116.5,72.5 116.5,84.5 116.5,96.5 116.5,108.5 116.5,120.5 116.5,133 				"/>
				<polyline style="fill:none;stroke:#000000;stroke-miterlimit:10;" points="103.5,0 103.5,0.5 103.5,12.5 103.5,24.5 103.5,36.5 
					103.5,48.5 103.5,60.5 103.5,72.5 103.5,84.5 103.5,96.5 103.5,108.5 103.5,120.5 103.5,133 				"/>
				<polyline style="fill:none;stroke:#000000;stroke-miterlimit:10;" points="90.5,0 90.5,0.5 90.5,12.5 90.5,24.5 90.5,36.5 
					90.5,48.5 90.5,60.5 90.5,72.5 90.5,84.5 90.5,96.5 90.5,108.5 90.5,120.5 90.5,133 				"/>
				<polyline style="fill:none;stroke:#000000;stroke-miterlimit:10;" points="77.5,0 77.5,0.5 77.5,12.5 77.5,24.5 77.5,36.5 
					77.5,48.5 77.5,60.5 77.5,72.5 77.5,84.5 77.5,96.5 77.5,108.5 77.5,120.5 77.5,133 				"/>
				<polyline style="fill:none;stroke:#000000;stroke-miterlimit:10;" points="65.5,0 65.5,0.5 65.5,12.5 65.5,24.5 65.5,36.5 
					65.5,48.5 65.5,60.5 65.5,72.5 65.5,84.5 65.5,96.5 65.5,108.5 65.5,120.5 65.5,133 				"/>
				<polyline style="fill:none;stroke:#000000;stroke-miterlimit:10;" points="52.5,0 52.5,0.5 52.5,12.5 52.5,24.5 52.5,36.5 
					52.5,48.5 52.5,60.5 52.5,72.5 52.5,84.5 52.5,96.5 52.5,108.5 52.5,120.5 52.5,133 				"/>
				<polyline style="fill:none;stroke:#000000;stroke-miterlimit:10;" points="39.5,0 39.5,0.5 39.5,12.5 39.5,24.5 39.5,36.5 
					39.5,48.5 39.5,60.5 39.5,72.5 39.5,84.5 39.5,96.5 39.5,108.5 39.5,120.5 39.5,133 				"/>
				<polyline style="fill:none;stroke:#000000;stroke-miterlimit:10;" points="26.5,0 26.5,0.5 26.5,12.5 26.5,24.5 26.5,36.5 
					26.5,48.5 26.5,60.5 26.5,72.5 26.5,84.5 26.5,96.5 26.5,108.5 26.5,120.5 26.5,133 				"/>
				<polyline style="fill:none;stroke:#000000;stroke-miterlimit:10;" points="13.5,0 13.5,0.5 13.5,12.5 13.5,24.5 13.5,36.5 
					13.5,48.5 13.5,60.5 13.5,72.5 13.5,84.5 13.5,96.5 13.5,108.5 13.5,120.5 13.5,133 				"/>
			</g>
		</g>
	</g>
</g>
</svg>
